<svg width="7" height="552" viewBox="0 0 7 552" fill="none" xmlns="http://www.w3.org/2000/svg">
<path d="M3.78894 552V143.394" stroke="#33536F" stroke-width="3" stroke-miterlimit="10"/>
<path d="M3.78894 93.2301V0.946533" stroke="#33536F" stroke-width="3" stroke-miterlimit="10"/>
<path d="M3.33204 106.333C5.17227 106.333 6.66408 105.159 6.66408 103.712C6.66408 102.265 5.17227 101.092 3.33204 101.092C1.4918 101.092 0 102.265 0 103.712C0 105.159 1.4918 106.333 3.33204 106.333Z" fill="#33536F"/>
<path d="M3.33204 120.184C5.17227 120.184 6.66408 119.01 6.66408 117.563C6.66408 116.116 5.17227 114.943 3.33204 114.943C1.4918 114.943 0 116.116 0 117.563C0 119.01 1.4918 120.184 3.33204 120.184Z" fill="#33536F"/>
<path d="M3.33204 134.035C5.17227 134.035 6.66408 132.862 6.66408 131.414C6.66408 129.967 5.17227 128.794 3.33204 128.794C1.4918 128.794 0 129.967 0 131.414C0 132.862 1.4918 134.035 3.33204 134.035Z" fill="#33536F"/>
</svg>
