<svg width="1294" height="471" viewBox="0 0 1294 471" fill="none" xmlns="http://www.w3.org/2000/svg">
<path d="M387.562 2.24609H1215.05L1292 62.3641V470.193" stroke="#33536F" stroke-width="3" stroke-miterlimit="10"/>
<path d="M0.121094 2.24609H319.045" stroke="#33536F" stroke-width="3" stroke-miterlimit="10"/>
<path d="M371.881 5.241C373.721 5.241 375.213 4.06776 375.213 2.6205C375.213 1.17324 373.721 0 371.881 0C370.041 0 368.549 1.17324 368.549 2.6205C368.549 4.06776 370.041 5.241 371.881 5.241Z" fill="#33536F"/>
<path d="M354.27 5.241C356.11 5.241 357.602 4.06776 357.602 2.6205C357.602 1.17324 356.11 0 354.27 0C352.43 0 350.938 1.17324 350.938 2.6205C350.938 4.06776 352.43 5.241 354.27 5.241Z" fill="#33536F"/>
<path d="M336.657 5.241C338.497 5.241 339.989 4.06776 339.989 2.6205C339.989 1.17324 338.497 0 336.657 0C334.817 0 333.325 1.17324 333.325 2.6205C333.325 4.06776 334.817 5.241 336.657 5.241Z" fill="#33536F"/>
</svg>
