<svg width="1800" height="865" viewBox="0 0 2000 865" fill="none" xmlns="http://www.w3.org/2000/svg">
<path d="M1886.47 0L617.358 0.000488281C609.098 33.4018 585.284 63.6013 550.06 85.344C514.836 107.087 470.433 118.996 424.575 119H0V770.03H158.018C192.756 770.017 226.933 776.513 257.367 788.914C287.802 801.314 313.504 819.215 332.081 840.951H396.139L378.73 865H418.266L435.677 840.951H505.393L487.982 865H527.519L544.931 840.951H614.646L597.235 865H636.777L654.188 840.951H723.905L706.493 865H746.031L763.442 840.951H833.157L815.746 865H855.283L872.694 840.951H942.411L925 865H960.013C961.542 865 963.065 864.974 964.585 864.934L981.948 840.951H1045.51C1061.2 830.619 1073.13 817.533 1080.21 802.895L1174.59 655.184C1192.56 617.97 1240.74 593.078 1294.79 593.078L2000 593.078V82.9247C2000 37.1204 1949.18 0 1886.47 0Z" fill="#FCF8CD"/>
</svg>
